<?xml version="1.0" encoding="UTF-8" standalone="no"?>
<!-- Created with Inkscape (http://www.inkscape.org/) -->

<svg
   width="208.66817mm"
   height="123.71359mm"
   viewBox="0 0 208.66817 123.71359"
   version="1.1"
   id="svg1"
   inkscape:version="1.3.2 (091e20e, 2023-11-25, custom)"
   sodipodi:docname="montfinal.svg"
   xmlns:inkscape="http://www.inkscape.org/namespaces/inkscape"
   xmlns:sodipodi="http://sodipodi.sourceforge.net/DTD/sodipodi-0.dtd"
   xmlns="http://www.w3.org/2000/svg"
   xmlns:svg="http://www.w3.org/2000/svg">
  <sodipodi:namedview
     id="namedview1"
     pagecolor="#ffffff"
     bordercolor="#000000"
     borderopacity="0.25"
     inkscape:showpageshadow="2"
     inkscape:pageopacity="0.0"
     inkscape:pagecheckerboard="0"
     inkscape:deskcolor="#d1d1d1"
     inkscape:document-units="mm"
     inkscape:zoom="0.44631734"
     inkscape:cx="395.45853"
     inkscape:cy="234.13834"
     inkscape:window-width="1366"
     inkscape:window-height="697"
     inkscape:window-x="1912"
     inkscape:window-y="299"
     inkscape:window-maximized="1"
     inkscape:current-layer="layer1" />
  <defs
     id="defs1" />
  <g
     inkscape:label="Capa 1"
     inkscape:groupmode="layer"
     id="layer1"
     transform="translate(-0.79374923,-86.518749)">
    <g
       id="g5"
       transform="translate(0.106182,9.979671)">
      <path
         style="fill:#027B8D"
         d="m 0.68756723,150.15693 c 0,-50.09575 0,-50.09575 0.90514617,-51.382383 2.8367454,-4.032336 6.6133513,-7.889079 8.5539456,-8.735455 0.738942,-0.322284 1.492075,-0.218728 4.717931,0.648717 4.492458,1.208038 6.97652,1.309477 8.951901,0.365557 1.917851,-0.91643 2.373928,-1.347394 6.296413,-5.949714 6.381222,-7.487198 7.082022,-7.630352 9.62694,-1.966516 0.882164,1.963297 2.929331,5.150757 4.951912,7.710177 3.847371,4.868549 7.332266,9.134335 8.591734,10.516957 1.785832,1.96046 2.457439,1.99928 6.392478,0.36949 5.293092,-2.192259 6.30219,-1.956582 9.350167,2.18375 3.129624,4.25124 5.674429,5.86454 7.866474,4.987 1.587671,-0.63559 7.016098,-5.59094 11.026176,-10.065261 5.569949,-6.214784 8.562652,-8.654005 10.860495,-8.851914 0.964343,-0.08306 1.071292,0.03007 2.25668,2.387083 3.8925,7.739812 3.529,7.396897 5.77396,5.447118 2.49517,-2.167091 2.60911,-2.197989 5.28211,-1.432424 7.45455,2.135033 8.41077,1.814364 13.98939,-4.69133 3.3662,-3.925607 4.92952,-5.140447 5.90653,-4.589886 0.30205,0.170207 1.1078,1.472437 1.79056,2.893843 1.1808,2.458261 3.12089,5.431579 5.21937,7.999032 0.52715,0.644966 1.59292,1.969286 2.36838,2.942939 2.83783,3.56313 4.44489,5.45683 4.81935,5.67895 0.72254,0.4286 2.71066,-0.32547 3.93911,-1.49406 0.67577,-0.64284 1.83666,-1.34294 2.57975,-1.55578 3.33305,-0.95466 5.0135,-1.64526 6.07204,-2.4954 1.70817,-1.371859 7.36738,-8.227993 8.88448,-10.76354 2.21459,-3.701266 3.14828,-4.107289 6.73465,-2.928605 1.01997,0.335219 2.12053,0.536235 2.44569,0.446701 0.32516,-0.08953 1.73917,-1.516526 3.14224,-3.171095 1.40307,-1.65457 2.9735,-3.342335 3.48985,-3.75059 2.75637,-2.179348 5.38033,0.401598 13.3322,13.113641 4.7532,7.598588 4.48789,7.326518 8.17977,8.387738 1.16056,0.3336 2.17704,0.92547 3.05483,1.77874 1.31551,1.27877 1.31551,1.27877 1.31551,48.67052 0,47.39174 0,47.39174 -104.33408,47.39174 -104.33408277,0 -104.33408277,0 -104.33408277,-50.09574 z"
         id="path5" />
    </g>
  </g>
</svg>
