        <svg xmlns="http://www.w3.org/2000/svg" width="236" height="70" viewBox="0 0 236 70" fill="none" id="logo">
            <path d="M235.327 24.6925C235.67 25.9252 234.401 27.41 234.076 28.7457C234.57 29.8802 234.198 30.4618 233.368 31.8201C231.17 35.4132 230.257 40.0939 227.234 44.1529C227.351 41.6659 228.792 39.0574 230.368 36.841C227.688 38.7406 226.263 42.2876 226.741 44.8207C227.124 44.9414 226.839 44.3598 227.234 44.1529C227.548 44.2509 227.223 44.9992 227.688 44.4755C227.874 44.7227 227.287 45.2405 227.112 45.2581C226.769 46.6575 227.571 47.6823 228.083 48.868C228.164 49.0465 227.827 49.2249 227.868 49.3976C228.09 50.2782 229.432 51.1882 230.699 52.1209C231.303 51.9424 231.995 52.3278 232.658 52.5071C230.775 53.4507 228.909 54.4931 226.694 53.335C226.257 53.175 226.804 52.8574 226.689 52.6446C224.747 51.4639 224.694 49.9908 223.561 48.6836C223.956 48.3091 223.317 47.8432 223.909 47.7393C223.486 45.926 223.694 44.0146 223.52 42.1611C224.595 40.6059 224.636 39.2191 225.218 37.7393C225.334 37.348 224.799 37.6873 224.845 37.3069C226.351 33.6401 227.147 30.2372 228.601 26.3341C227.683 26.3341 227.136 26.8921 226.322 27.0882C226.193 27.1167 225.781 26.8234 225.59 26.9039C224.124 27.508 223.328 29.6557 221.817 30.1626C222.125 29.1663 223.346 28.4985 223.979 27.451C222.619 27.6697 221.561 29.8224 220.289 30.5942C221.055 28.6024 223.032 27.0648 224.508 25.0956C224.136 24.8652 223.863 25.2339 223.561 25.4358C223.759 24.3641 224.909 23.858 225.479 23.0636C222.898 24.261 221.265 27.4276 218.666 30.4559C219.091 30.4157 219.387 29.5576 219.765 29.1948C220.265 30.8874 217.003 32.6379 216.992 34.3766C217.684 34.0942 217.724 32.6035 218.643 32.834C218.073 33.5135 217.818 33.7381 217.608 34.4747C216.027 34.7453 216.335 37.048 215.4 38.1825C215.527 38.4934 215.348 38.8504 215.556 39.1495C213.016 43.439 211.325 48.1138 207.651 52.2474C207.441 52.0513 207.848 51.758 207.639 51.5561C206.866 51.0961 206.395 52.5298 205.698 52.5524C205.215 52.2365 205.535 51.7865 205.518 51.396C203.227 51.5452 202.547 48.9141 202.308 47.544C202.785 46.9675 203.006 46.122 203.059 45.3503C208.523 38.5739 211.045 31.9357 214.353 25.2917C213.917 25.4986 213.393 25.1417 212.958 25.3093C213.847 24.3934 214.632 24.2501 215.242 23.3686C216.329 21.8259 216.038 19.1663 218.039 17.6924C218.916 18.2102 219.741 18.4289 220.91 19.4252C221.021 20.2942 220.997 21.1866 220.834 22.1025C221.084 22.2114 221.405 22.7468 221.561 22.286C221.683 22.534 221.555 22.8164 221.294 23.1214C221.631 23.1264 221.864 22.4821 222.177 22.3899C222.648 22.5164 221.997 22.8164 222.468 22.9371C222.851 22.8616 223.224 22.6664 223.572 22.3723C223.95 22.8449 224.2 22.5457 224.526 22.7184C225.508 21.5612 227.026 20.5707 228.682 20.5816C229.048 20.1735 228.921 19.7127 229.455 19.7705C229.914 19.9314 229.711 20.1961 229.461 20.4609C230.049 20.5472 230.164 20.1735 230.234 19.6498C231.193 20.6972 231.989 20.202 232.588 20.6687C232.989 20.7835 232.646 20.254 233.031 20.3001C233.315 20.9503 233.623 21.5955 234.622 22.131C234.082 22.741 234.745 23.1675 234.088 23.8001C234.315 23.9619 234.536 24.1227 234.762 24.2845C234.588 24.7101 234.512 25.1132 234.559 25.5045C234.873 25.6025 235.065 24.9121 235.327 24.6925Z" fill="#FFF"/>
            <path d="M233.285 33.4143C233.412 33.6709 233.273 33.963 233.008 34.2784C232.503 34.0817 233.177 33.7064 233.285 33.4143Z" fill="#FFF"/>
            <path d="M230 36.9229C228.371 39.055 226.879 41.5645 226.759 43.957C226.35 44.1561 226.645 44.7155 226.248 44.5995C225.754 42.1626 227.228 38.7503 230 36.9229Z" fill="#FFF"/>
            <path fill-rule="evenodd" clip-rule="evenodd" d="M209.225 24.7321C209.295 25.4578 208.74 26.2492 208.169 27.0638C207.562 27.9291 206.937 28.8206 207.023 29.6871C207.266 29.8845 207.439 29.639 207.613 29.3936C207.737 29.2188 207.86 29.0439 208.009 29.0295C207.722 29.4472 207.48 29.9617 207.233 30.4861C206.784 31.4385 206.32 32.4232 205.547 32.9184C204.411 35.8302 202.803 38.7064 200.242 41.4665C200.115 41.6807 200.201 41.8611 200.287 42.0413C200.348 42.1698 200.409 42.2981 200.393 42.4385C200.076 43.1087 199.695 43.3624 199.312 43.6167C198.976 43.8399 198.639 44.0636 198.346 44.5698C198.102 44.3591 198.251 44.2518 198.396 44.1468C198.516 44.0604 198.634 43.9755 198.53 43.836C197.868 44.4145 197.254 45.3173 196.64 46.2208C196.259 46.7809 195.878 47.3413 195.486 47.8249C195.841 47.7502 196.16 47.4391 196.48 47.1279C196.907 46.7113 197.335 46.2945 197.85 46.4444C197.397 47.5131 196.216 48.4437 195.059 49.3548L195.059 49.3548L195.059 49.3549C194.419 49.8591 193.786 50.3574 193.289 50.8697C193.186 51.4528 192.926 52.0172 192.344 52.4248C192.033 52.0697 192.239 51.6383 192.545 51.19C192.01 51.6702 191.446 51.9549 190.882 52.2398C190.407 52.4799 189.931 52.72 189.472 53.0773C189.368 52.9777 189.417 52.8536 189.467 52.7298C189.516 52.6062 189.565 52.4828 189.461 52.3841C187.89 53.2135 186.132 52.5907 184.474 52.0034C184.039 51.8491 183.61 51.6972 183.193 51.5748C180.697 47.2308 180.807 41.4318 185.033 36.6802C185.835 33.5302 187.985 30.2812 190.493 27.2126C191.27 26.2618 191.976 25.2003 192.676 24.1489C194.324 21.6721 195.936 19.2508 198.34 18.4619C200.277 19.9229 201.782 21.4483 201.759 23.2186C198.519 25.6118 195.872 28.5168 192.972 32.3193C193.635 32.7387 194.863 31.3294 195.601 30.1007C195.685 30.8254 194.969 31.4993 194.221 32.2034C193.364 33.0101 192.466 33.8564 192.678 34.8641C191.734 35.7185 191.324 36.3521 190.636 37.4169C190.55 37.5488 190.461 37.6872 190.366 37.8335C190.518 37.9446 190.623 37.7567 190.729 37.5684C190.856 37.3429 190.983 37.1169 191.191 37.4022C190.585 38.6756 189.854 39.6583 189.126 40.6385C188.419 41.5898 187.713 42.5387 187.125 43.7487C187.458 43.6331 187.738 43.1953 188.017 42.7572C188.188 42.4888 188.36 42.2203 188.543 42.0258C188.495 42.8003 188.1 43.6298 187.704 44.4599C187.395 45.1085 187.085 45.7575 186.941 46.3808C187.399 46.1338 187.838 45.9146 188.274 45.6968C188.918 45.3752 189.555 45.0568 190.239 44.6571C191.136 44.1324 191.864 43.3886 192.612 42.624C193.2 42.0229 193.8 41.4088 194.506 40.8784C194.86 40.6097 195.276 40.3898 195.703 40.164C196.673 39.6513 197.701 39.1077 198.201 37.8912C198.386 37.7167 198.586 37.644 198.786 37.5714C198.96 37.5082 199.133 37.445 199.297 37.3149C202.37 33.7514 205.103 29.8388 206.527 25.8618C206.954 25.7548 207.17 25.5166 207.485 25.1686L207.485 25.1686C207.684 24.9487 207.923 24.6851 208.28 24.383C208.098 24.1791 207.967 24.2913 207.835 24.4034C207.704 24.5154 207.573 24.6274 207.392 24.4237C207.496 23.9333 207.894 23.6386 208.293 23.3436C208.486 23.2007 208.679 23.0577 208.839 22.8923C209.261 23.0957 208.927 23.6691 208.574 24.2739C208.291 24.7604 207.995 25.2671 208.072 25.6177C208.326 25.7347 208.517 25.4612 208.708 25.1881C208.868 24.9588 209.028 24.7298 209.225 24.7321ZM205.443 31.6379C206.083 30.9973 206.671 29.5066 206.567 28.6566C206.445 28.9676 206.296 29.2826 206.147 29.5977C205.819 30.2913 205.49 30.9853 205.443 31.6379ZM202.458 34.5952C202.253 34.8326 202.048 35.0698 201.955 35.2887C201.938 34.9332 202.183 34.5361 202.428 34.1385C202.593 33.8717 202.757 33.6046 202.843 33.3497C203.249 33.6795 202.853 34.1378 202.458 34.5952Z" fill="#FFF"/>
            <path d="M207.37 34.6491C207.473 35.2922 207.04 35.846 206.468 36.1199C206.379 35.6908 207.136 35.131 207.37 34.6491Z" fill="#FFF"/>
            <path d="M199.675 43.8457C199.813 44.5476 199.031 44.6892 198.887 45.3842C198.423 44.9835 199.489 44.3468 199.675 43.8457Z" fill="#FFF"/>
            <path d="M198.604 45.105C199.103 45.2775 198.393 46.0393 198.146 45.4855C198.291 45.307 198.411 45.0036 198.604 45.105Z" fill="#FFF"/>
            <path d="M186.256 8.46191C188.123 8.50328 189.872 11.0734 190 12.6662C188.764 13.5841 187.436 13.9987 187.041 16.1542C185.964 13.7375 186.108 11.1027 186.256 8.46191Z" fill="#FFF"/>
            <path fill-rule="evenodd" clip-rule="evenodd" d="M178.31 28.0206C178.324 27.4743 178.337 26.9279 178.007 26.4374C176.795 25.3017 175.94 24.5057 174.441 23.8457C173.453 24.0465 173.314 24.7685 173.168 25.5204C173.114 25.7997 173.059 26.0832 172.96 26.3456C172.586 27.3227 171.982 28.1807 171.365 29.0583C170.968 29.6226 170.565 30.195 170.214 30.8122C170.108 30.9988 170.063 31.2087 170.018 31.423C169.973 31.636 169.927 31.8533 169.818 32.0563C169.438 32.7518 168.967 33.4247 168.481 34.1194C167.99 34.8214 167.483 35.5458 167.039 36.3385C166.449 37.7692 165.75 39.2178 165.051 40.6663C164.018 42.8049 162.985 44.9434 162.308 47.0248C162.551 47.462 162.741 47.906 162.931 48.3496C163.202 48.9821 163.473 49.6138 163.898 50.2239C164.078 50.164 164.249 50.0492 164.419 49.9347C164.754 49.7097 165.088 49.4855 165.488 49.679C165.79 49.824 165.768 50.0195 165.746 50.2143C165.723 50.4197 165.7 50.6245 166.056 50.7688C166.478 50.1271 167.041 50.3468 167.603 50.5661C167.639 50.5801 167.675 50.594 167.71 50.6077C169.675 45.1907 173.832 38.9527 177.341 34.1256C177.108 33.4464 177.588 32.6551 178.069 31.8612C178.205 31.6369 178.341 31.4124 178.461 31.1902C178.263 30.9175 178.113 30.9519 177.964 30.9862C177.827 31.0174 177.691 31.0486 177.519 30.8464C177.937 30.6838 178.164 30.0905 178.341 29.6237C178.384 29.5133 178.423 29.41 178.461 29.3211C178.289 28.9076 178.3 28.4641 178.31 28.0206ZM169.899 44.5367C169.468 45.096 169.038 45.655 168.693 46.2221C169.071 44.5014 170.327 42.8995 171.487 41.4215C171.598 41.2797 171.708 41.139 171.817 40.9995C171.678 42.2276 170.788 43.3826 169.899 44.5367Z" fill="#FFF"/>
            <path fill-rule="evenodd" clip-rule="evenodd" d="M178.461 15.9998C178.202 16.1199 178.094 16.3486 177.988 16.572C177.871 16.8184 177.758 17.0583 177.448 17.1392C177.34 16.8685 177.313 16.5855 177.287 16.3025C177.229 15.6818 177.171 15.0615 176.245 14.5738C174 14.5774 172.03 16.3074 170.024 18.0691C168.795 19.1484 167.553 20.2397 166.225 20.953C165.826 21.168 165.384 21.3313 164.924 21.5016C163.63 21.9802 162.186 22.5141 161.111 24.4069C161.505 24.2625 161.829 23.9176 162.159 23.5677C162.628 23.0695 163.107 22.5613 163.807 22.6083C161.978 25.4712 159.479 28.4608 157.032 30.6486C157.391 29.7145 158.01 28.9393 158.654 28.1312C159.215 27.4282 159.796 26.7003 160.243 25.8212C157.743 28.2374 155.314 31.072 152.977 34.5308C153.403 34.2697 153.8 33.8534 154.197 33.4373L154.197 33.437L154.197 33.437L154.197 33.437C154.34 33.2874 154.482 33.1379 154.626 32.9956C154.595 33.8683 153.987 34.8348 153.379 35.8018C152.957 36.4723 152.536 37.1431 152.306 37.783C152.709 37.8026 153.03 37.3137 153.351 36.8238C153.508 36.5838 153.666 36.3436 153.833 36.1628C153.758 36.5811 153.486 37.5946 153.052 37.4688C152.348 38.9251 152.162 40.3024 151.975 41.6796C151.844 42.6472 151.714 43.6148 151.403 44.6098C151.606 44.649 151.785 44.524 151.953 44.3289C152.068 44.9234 151.652 45.4374 151.211 45.9829C150.853 46.4255 150.478 46.8888 150.356 47.4327C150.325 47.6898 150.298 47.9594 150.27 48.2366L150.27 48.2368L150.27 48.2371L150.27 48.2372C150.075 50.2014 149.843 52.544 147.643 53.4628C146.978 53.2394 146.359 53.3027 145.815 53.8462C145.381 53.4344 145.022 53.4403 144.698 53.7203C143.77 53.2725 143.489 52.7217 143.208 52.1711C142.993 51.7501 142.778 51.3294 142.274 50.9549C142.303 50.5721 142.256 50.2017 142.21 49.832C142.143 49.3002 142.076 48.7697 142.233 48.2053C140.255 47.7819 138.768 46.2992 137.744 44.9699C137.809 44.8668 137.883 44.8315 137.958 44.796C138.036 44.7587 138.115 44.7211 138.184 44.604C137.664 44.0671 137.472 43.479 137.281 42.8905C137.117 42.3862 136.953 41.8816 136.581 41.4085C136.763 40.2339 136.652 39.1023 136.54 37.971C136.499 37.5523 136.457 37.1336 136.431 36.7128C136.501 36.5055 136.456 36.5392 136.372 36.6034C136.267 36.6828 136.101 36.809 136.014 36.5811C136.009 36.5244 136 36.4682 135.991 36.4119C135.945 36.1157 135.899 35.8181 136.327 35.4476C135.933 35.636 135.858 35.3901 135.766 35.0468C134.961 36.0049 134.529 36.9053 134.097 37.8059C133.628 38.7832 133.159 39.7608 132.213 40.8126C132.169 40.8978 132.238 40.966 132.307 41.0341C132.382 41.1078 132.456 41.1815 132.387 41.2768C130.107 45.5775 126.741 48.6012 123.292 50.3648C123.113 50.3435 123.179 50.3143 123.326 50.249C123.536 50.1563 123.91 49.991 123.981 49.6722C123.67 49.4332 123.228 49.383 122.796 49.3339C122.152 49.2607 121.531 49.1902 121.407 48.4979C121.189 48.3313 121.003 48.3712 120.816 48.411C120.65 48.4465 120.484 48.482 120.296 48.3712C120.094 47.9368 119.849 47.5095 119.604 47.0822C119.089 46.1863 118.575 45.2905 118.461 44.3289C118.687 42.1986 118.925 40.0625 119.231 37.9147C120.292 36.3118 121.061 34.6211 121.84 32.9063C122.774 30.8538 123.723 28.7668 125.207 26.7547C125.527 26.3217 125.848 25.8178 126.182 25.2937L126.182 25.2936C126.701 24.4791 127.252 23.6158 127.874 22.8942C127.96 22.7943 128.047 22.6932 128.135 22.5911C129.967 20.4661 132.186 17.892 134.626 17.22C134.972 17.4731 135.328 17.7246 135.683 17.976L135.683 17.976L135.683 17.976L135.683 17.976L135.683 17.976C136.999 18.9076 138.312 19.8373 139.173 20.8389C139.41 21.1647 139.387 21.5256 139.248 21.9098C139.43 21.9231 139.584 21.7575 139.737 21.592C139.978 21.3315 140.219 21.0711 140.573 21.509C140.605 21.4165 140.697 21.3155 140.789 21.2147C140.976 21.0093 141.162 20.8052 140.839 20.6788C140.937 20.4917 141.077 20.568 141.217 20.6441C141.368 20.7262 141.518 20.8081 141.614 20.558C141.868 20.9707 142.13 21.0786 142.404 21.192C142.618 21.2802 142.84 21.3717 143.072 21.6123C143.847 22.4062 143.825 23.2786 143.802 24.1909C143.787 24.7785 143.772 25.3827 143.969 25.9929C143.512 26.5597 143.304 27.0806 143.326 27.5732C143.58 27.6729 143.629 27.4464 143.674 27.24C143.714 27.0547 143.751 26.8857 143.929 26.9831C144.212 27.49 144.049 28.0669 143.887 28.6439C143.721 29.2338 143.555 29.8237 143.865 30.3386C143.757 30.4897 143.702 30.6324 143.646 30.7746L143.646 30.7746C143.565 30.9828 143.484 31.19 143.24 31.4212C143.186 31.5497 143.322 31.6455 143.461 31.7427C143.514 31.7797 143.567 31.8169 143.61 31.8563C143.068 32.654 142.887 33.3958 142.705 34.1382C142.528 34.8618 142.351 35.5861 141.84 36.3636C142.256 36.4899 142.349 36.1488 142.453 35.7654C142.529 35.4887 142.61 35.19 142.823 35.0293C142.752 36.1531 142.458 37.3117 142.164 38.4705C141.712 40.2465 141.261 42.0231 141.614 43.6763C142.326 44.1914 143.032 44.7015 143.744 45.2107C144.53 45.0674 144.929 43.6072 145.075 42.9429C146.476 39.438 148.554 35.9511 150.642 32.4466C152.614 29.1376 154.596 25.8129 156.025 22.4424C155.744 22.5233 155.464 22.6154 155.184 22.7076L155.184 22.7076L155.184 22.7076L155.184 22.7076C153.64 23.2155 152.093 23.7246 150.252 22.3624C150.205 21.9626 149.889 21.6035 149.572 21.2445C149.226 20.8521 148.88 20.4598 148.886 20.0146C149.253 19.8197 149.619 19.6235 149.985 19.4273L149.985 19.4272L149.986 19.427L149.986 19.4269C153.495 17.547 157.008 15.6654 160.7 14.9288C161.305 13.7934 161.913 12.6417 162.525 11.4831L162.526 11.4801L162.527 11.48C164.568 7.61544 166.65 3.67408 168.759 0C171.21 1.56751 170.405 3.64064 169.599 5.71488C169.13 6.92173 168.662 8.12895 168.834 9.23717C167.987 10.1032 168.033 10.8303 168.079 11.5588C168.09 11.7404 168.102 11.922 168.1 12.1059C168.221 12.1685 168.333 12.1655 168.445 12.1626C168.631 12.1576 168.817 12.1526 169.048 12.4493C169.297 12.2149 169.58 12.2786 169.897 12.35C170.067 12.3883 170.247 12.4288 170.437 12.4268C170.514 12.4268 170.601 12.3613 170.691 12.2935C170.789 12.2195 170.89 12.1429 170.987 12.1459C171.066 12.1489 171.141 12.2307 171.216 12.3117C171.29 12.3911 171.363 12.4698 171.437 12.4726C171.737 12.4789 172.078 12.4705 172.441 12.4615C173.735 12.4296 175.32 12.3906 176.39 12.9761C177.651 13.6687 178.409 14.883 178.461 15.9998ZM155.383 27.7624C155.84 26.9962 156.467 26.4284 157.034 25.9149C157.781 25.2386 158.425 24.6565 158.438 23.8393C158.146 24.1993 157.806 24.5588 157.458 24.9273C156.648 25.7841 155.792 26.6895 155.383 27.7624ZM141.745 37.1041C141.864 37.304 141.982 37.5023 141.864 37.738C141.747 37.6513 141.638 37.5721 141.522 37.4913C141.724 37.3628 141.649 37.277 141.574 37.1906C141.499 37.1039 141.423 37.0165 141.626 36.8845C141.658 36.9591 141.702 37.0317 141.745 37.1041ZM138.837 22.4649C138.512 22.5828 138.181 22.6686 137.85 22.7545C136.782 23.0317 135.714 23.309 134.816 24.6644C133.937 24.9503 133.122 25.8379 132.873 26.8406C130.959 28.1834 129.839 29.9053 128.673 31.6971C128.143 32.511 127.604 33.3394 126.977 34.1533C127.077 34.1028 127.168 34.0088 127.258 33.9151C127.395 33.7736 127.531 33.6327 127.695 33.6432C127.513 34.6001 126.827 35.485 126.148 36.3612C125.491 37.2099 124.84 38.0504 124.658 38.9407C124.565 39.0548 124.507 39.2607 124.692 39.129C124.912 38.5906 125.005 38.5106 125.485 38.5164C125.504 38.9083 125.247 39.3416 124.99 39.7753C124.691 40.2797 124.391 40.7846 124.525 41.2252C130.154 36.6787 135.482 28.9992 138.837 22.4649ZM126.424 35.1335C126.257 35.242 126.091 35.3496 126.001 35.4818C125.896 34.9951 126.636 34.5308 126.926 34.4558C126.991 34.7655 126.706 34.9507 126.424 35.1335Z" fill="#FFF"/>
            <path d="M156.923 32.3076C156.22 33.59 155.778 34.8193 154.711 36.1538C154.675 35.9388 154.646 35.7172 154.615 35.5031C155.337 34.5788 156.427 32.4573 156.923 32.3076Z" fill="#FFF"/>
            <path fill-rule="evenodd" clip-rule="evenodd" d="M128.489 15.9504C128.946 15.677 129.191 14.9602 129.231 14.4646C128.544 13.8171 127.913 13.8571 127.217 13.9012C126.866 13.9234 126.499 13.9467 126.099 13.8837C124.867 13.6848 122.848 14.3055 121.843 14.8458C121.57 15.0379 121.603 15.1817 121.636 15.3247C121.661 15.4322 121.686 15.5393 121.581 15.6662C119.629 16.3894 117.757 17.6252 115.885 18.861L115.885 18.861C113.851 20.2037 111.817 21.5462 109.681 22.2311C109.054 23.0109 108.381 23.5346 107.673 23.8197C107.569 23.2224 107.112 23.0546 106.597 22.8654C106.209 22.7227 105.788 22.5679 105.459 22.2079C105.166 22.5401 104.82 22.528 104.474 22.5159C104.132 22.504 103.789 22.492 103.497 22.812C103.885 23.6315 104.141 24.4743 103.999 25.3734C102.925 27.6593 102.174 30.1063 101.422 32.5559C100.633 35.1283 99.8422 37.7036 98.6762 40.0984C98.4225 40.6208 98.2393 41.1823 98.0578 41.7386L98.0578 41.7386C97.929 42.1335 97.801 42.5257 97.6493 42.8994C97.5794 43.0736 97.4427 43.2229 97.3104 43.3672C97.1836 43.5057 97.0608 43.6396 97.0051 43.7869C96.8181 44.2773 96.9867 44.6966 97.1587 45.1244C97.3486 45.5967 97.5426 46.0794 97.2674 46.6798C97.603 47.0209 97.8078 47.382 98.0125 47.7429C98.1978 48.0695 98.3829 48.3958 98.6646 48.7068C98.8303 48.9371 98.953 48.8873 99.0757 48.8375C99.1984 48.7876 99.3211 48.7378 99.4869 48.9687C99.5264 49.0934 99.5364 49.2226 99.5463 49.3518C99.5564 49.482 99.5664 49.6121 99.6065 49.7377C100.148 49.9161 100.587 49.4461 101.026 48.976L101.026 48.976C101.203 48.7868 101.38 48.5977 101.563 48.4507C101.611 48.6037 101.616 48.7634 101.62 48.923C101.632 49.3157 101.645 49.7079 102.294 49.9995C103.149 48.1035 103.959 46.2133 104.547 44.3628C104.696 44.2398 104.549 44.1642 104.403 44.0893C104.258 44.0149 104.114 43.941 104.262 43.8217C104.511 43.2199 104.784 42.6148 105.056 42.0099C105.812 40.332 106.567 38.6561 106.823 37.0571C106.722 37.1949 106.64 37.3673 106.557 37.5395C106.363 37.9442 106.169 38.3485 105.745 38.3043C106.02 37.6378 106.499 36.9532 106.956 36.3001C107.522 35.4915 108.054 34.7311 108.123 34.1136C107.895 34.3281 107.707 34.6571 107.541 34.9472C107.368 35.2499 107.219 35.5103 107.073 35.5539C106.369 34.6789 107.358 33.2596 108.142 32.1346C108.424 31.7296 108.679 31.3627 108.82 31.0732C108.843 31.3606 108.689 31.6778 108.536 31.9948L108.536 31.9948C108.467 32.1365 108.399 32.2783 108.346 32.4173C108.974 32.3485 109.025 32.6908 108.956 33.2029C110.33 31.0895 112.036 29.1071 113.69 27.1863L113.69 27.1863C115.231 25.3971 116.725 23.6613 117.861 21.9228C118.193 21.6364 118.616 21.3643 119.053 21.0836C120.022 20.461 121.056 19.7967 121.296 18.8434C120.792 19.216 120.29 19.6026 119.788 19.9893L119.788 19.9893C118.426 21.0381 117.064 22.0874 115.66 22.8575C116.667 21.6456 117.751 20.9295 118.835 20.2131C119.702 19.6402 120.57 19.0671 121.399 18.2401C121.527 18.4389 121.614 18.3649 121.7 18.2909C121.787 18.2168 121.874 18.1426 122.003 18.342C121.989 18.3613 121.968 18.3887 121.942 18.4214L121.942 18.4215C121.758 18.6599 121.352 19.1842 121.712 18.9743C121.927 18.7678 121.987 18.5861 122.048 18.4046L122.048 18.4046C122.079 18.3108 122.111 18.2171 122.163 18.1199C122.756 17.8494 123.332 17.4667 123.908 17.0839C125.343 16.1298 126.78 15.1746 128.489 15.9504ZM116.412 19.0536C116.612 18.8206 116.81 18.5883 117.08 18.8202C116.954 18.8789 116.839 18.9999 116.723 19.1208C116.502 19.3513 116.282 19.582 115.99 19.3837C116.146 19.3658 116.279 19.2095 116.412 19.0536ZM114.724 22.5153C114.827 22.3436 114.956 22.2327 115.067 22.1373C115.257 21.9735 115.395 21.8554 115.255 21.5532C115.208 21.6707 115.095 21.7985 114.982 21.9262L114.982 21.9262C114.794 22.1391 114.606 22.3516 114.724 22.5153ZM112.357 25.0234C111.921 25.4643 111.465 25.9248 111.136 26.5013C111.261 25.9602 112.784 23.7567 113.583 23.3805C113.363 24.0071 112.874 24.5015 112.357 25.0234Z" fill="#FFF"/>
            <path d="M125.385 17.6924C124.704 19.414 122.466 19.7344 121.225 21.3321C120.846 21.823 120.305 22.8281 119.59 23.2312C119.462 23.3018 119.077 23.1304 118.92 23.2432C118.441 23.58 117.843 24.4679 117.173 25.0596C116.386 25.7581 115.392 26.0363 115.431 26.876C114.818 26.8528 114.382 27.9888 113.846 28.4616C115.856 23.7221 119.942 21.8402 123.007 18.4908C123.621 18.9765 124.592 17.9645 125.385 17.6924Z" fill="#FFF"/>
            <path d="M119.184 24.6152C118.491 25.1932 118.552 25.902 117.74 26.1537C118.022 25.6687 118.173 24.6478 119.184 24.6152Z" fill="#FFF"/>
            <path d="M115.764 27.0312C115.777 27.436 115.518 27.8884 115.151 28.3529C114.736 27.7038 115.289 27.4056 115.764 27.0312Z" fill="#FFF"/>
            <path d="M114.268 27.8611C114.334 28.3074 114.033 29.2842 113.419 29.0164C113.365 28.5163 113.979 28.2182 114.268 27.8611Z" fill="#FFF"/>
            <path d="M112.422 29.6754C112.927 29.8713 112.265 30.3246 112.115 30.3419C111.844 30.2292 112.127 29.5385 112.422 29.6754Z" fill="#FFF"/>
            <path d="M101.473 21.7108C101.775 21.9642 101.966 21.4926 102.308 21.9751C100.581 25.2502 98.5405 31.9742 94.4087 33.6745C94.1414 33.9789 94.4087 34.198 94.1414 34.5083C93.1216 35.1807 92.1018 35.8581 91.1164 36.7546C88.3001 36.6802 87.8132 41.2131 86.0284 42.9777C85.5759 41.5986 86.5613 39.9954 86.9091 38.4959C84.4573 40.9204 84.6718 43.7823 85.1243 46.0813C86.8739 46.8106 89.1347 45.5636 91.1105 44.2598C92.8953 43.0806 94.7271 41.3402 96.553 39.6567C96.8136 40.013 96.553 40.4495 96.93 40.7832C94.4028 43.4369 93.9268 47.023 91.661 49.6031C91.5806 49.7754 91.8705 49.8966 92.0264 50.0396C90.9714 50.6945 89.9801 51.7867 88.7634 51.4363C88.1836 51.9481 87.6272 52.6431 86.8797 52.1254C87.1697 51.8386 87.7956 51.775 87.7604 51.3962C86.6133 51.7064 84.9902 51.4873 83.5297 51.0683C82.7361 50.8383 82.8459 50.1952 82.2836 49.4827C81.4725 48.4598 80.2902 47.9363 80.9622 46.8282C80.2206 46.5463 80.586 46.0981 80.0002 45.7936C80.4008 45.3688 80.493 44.9949 80.5164 44.627C79.8444 42.8916 80.87 40.8869 80.8231 39.0529C82.2082 36.2721 83.8372 33.0313 84.9617 30.6068C85.9237 30.003 85.7502 29.3247 86.6828 28.2676C86.8973 27.9691 86.5781 27.7558 86.5555 27.4974C88.3285 25.3539 89.4413 22.9754 91.2262 21.1421C92.0499 19.0505 94.7564 18.4124 96.2806 16.6026C97.0742 16.8091 97.7462 16.2354 98.5003 16.1543C98.9285 16.35 98.5121 16.5164 98.3671 16.5733C98.7257 16.5967 98.8707 17.183 99.6299 17.6547C101.809 18.0335 101.705 20.32 101.473 21.7108Z" fill="#FFF"/>
            <path d="M87.1736 43.3428C87.5224 43.6054 86.891 44.2962 86.6083 44.3499C86.41 44.0761 87.0414 43.6704 87.1736 43.3428Z" fill="#FFF"/>
            <path d="M82.7846 30.7695C83.0185 31.2055 82.1827 31.7899 81.8278 32.308C81.6112 31.8519 82.3749 31.0412 82.7846 30.7695Z" fill="#FFF"/>
            <path fill-rule="evenodd" clip-rule="evenodd" d="M24.6844 42.1027L24.6845 42.1027C25.1226 41.5087 25.5481 40.9317 25.8923 40.4003C25.7799 40.6384 25.7325 40.8655 25.6852 41.0921C25.6235 41.3874 25.562 41.6819 25.3572 41.9988C25.7752 41.7499 26.1473 41.2003 26.5185 40.652C26.7348 40.3325 26.9508 40.0135 27.1753 39.7548C27.0357 38.4761 28.1427 37.0025 29.2502 35.5285L29.3513 35.3939C29.4579 35.157 29.5662 34.9197 29.6745 34.6825L29.6748 34.682L29.6749 34.6818L29.6749 34.6817L29.675 34.6815L29.6751 34.6814C30.4666 32.9479 31.2579 31.2149 31.3999 29.5833C30.7767 30.444 30.2014 31.6455 29.6066 32.8878L29.6066 32.8878L29.6065 32.8879C28.5645 35.0642 27.4625 37.3656 25.938 38.1796C26.1215 37.7796 26.4283 37.2634 26.7694 36.6893C27.1877 35.9853 27.6578 35.1942 28.0158 34.4235C28.0637 34.32 27.9998 34.2519 27.9352 34.1831C27.8754 34.1194 27.8151 34.0551 27.8427 33.9616C27.8735 33.849 28.0769 33.5492 28.2608 33.2783L28.2609 33.2782L28.2609 33.2782C28.4595 32.9855 28.6352 32.7265 28.5458 32.7736C28.269 32.9096 28.1855 33.1378 28.1086 33.3477C28.0081 33.6223 27.919 33.8657 27.4233 33.8303C27.6851 33.4204 28.0142 33.0008 28.3432 32.5812C28.8897 31.8845 29.4359 31.188 29.6733 30.5362C29.7996 30.3315 29.6534 30.3745 29.5058 30.4178C29.357 30.4615 29.2067 30.5056 29.3338 30.2961C30.2181 29.4821 30.2464 28.7993 30.2748 28.1173C30.2929 27.6808 30.311 27.2445 30.5536 26.7744C30.6632 26.6574 30.8061 26.7715 30.9492 26.8858L30.9492 26.8858L30.9492 26.8858L30.9492 26.8858L30.9493 26.8858L30.9493 26.8858L30.9493 26.8858C30.9941 26.9217 31.039 26.9575 31.0828 26.9862C31.6558 26.2491 32.281 25.8471 32.9062 25.445C33.6564 24.9626 34.4065 24.4802 35.0661 23.4188C35.971 23.0523 36.8215 22.3429 37.6718 21.6337C39.3257 20.2543 40.9788 18.8754 43.0308 20.0216C43.495 20.874 43.5389 21.7981 43.5826 22.7193C43.5866 22.8038 43.5906 22.8882 43.595 22.9726C42.4148 24.6149 41.0694 26.2003 39.7376 27.7697C36.8289 31.1973 33.9851 34.5484 33.069 38.2485C32.9581 38.4135 32.8287 38.4593 32.6995 38.505C32.5477 38.5587 32.3962 38.6123 32.2752 38.8592C31.4115 42.3294 31.1869 45.6975 33.0516 48.7399C33.2556 48.888 33.4612 49.0364 33.6667 49.1847C33.8727 49.3334 34.0786 49.482 34.2831 49.6305C34.2014 49.7375 34.1198 49.8478 34.0378 49.9585L33.9552 50.07C34.7949 50.7589 35.2552 50.8663 35.6958 50.9692C36.1097 51.0658 36.5063 51.1584 37.1837 51.7249C37.7071 51.4458 39.1233 51.7025 39.1866 52.4909C43.0483 51.754 46.6629 47.8501 49.2815 44.099C49.1483 44.1962 48.6774 43.8315 48.8671 43.7227L48.9798 43.5697L48.9803 43.5691C49.2414 43.2148 49.5025 42.8606 49.7591 42.5064C49.9372 42.415 50.1094 42.3186 50.2825 42.2098C49.9959 42.0829 50.1807 41.8813 50.364 41.6812C50.4533 41.5838 50.5422 41.4868 50.5762 41.3989C50.6919 41.6224 50.582 41.8899 50.3574 42.1633C51.6168 41.3491 52.7976 40.0402 53.9786 38.731C54.9403 37.665 55.9022 36.5988 56.9068 35.7993C56.5055 36.4729 56.1259 37.1432 55.7463 37.8134L55.7462 37.8135C54.9067 39.2959 54.0673 40.7781 52.9934 42.2954C53.1773 43.3114 53.1141 44.3674 52.8953 45.4458C53.5097 45.8795 53.8149 46.3608 54.1198 46.8416C54.4375 47.3427 54.7548 47.8432 55.4215 48.2887C55.7092 48.3828 56.0027 48.5142 56.2959 48.6455C57.2118 49.0556 58.1256 49.4647 58.858 48.7341C59.3748 46.8098 60.3827 44.9001 61.2742 43.2108L61.2742 43.2108L61.2743 43.2107L61.2745 43.2103L61.2749 43.2095C61.6233 42.5494 61.9539 41.9229 62.2305 41.3424C61.9219 41.0688 61.7049 41.3745 61.4871 41.6813C61.3273 41.9064 61.1671 42.1321 60.9698 42.13C61.0957 41.9117 61.2092 41.6981 61.3186 41.4923C61.77 40.6432 62.1512 39.926 63.0359 39.5496C63.0587 39.4044 63.0036 39.271 62.9482 39.1371C62.8642 38.934 62.7798 38.7299 62.9669 38.482C63.6981 37.4912 64.1524 36.4006 64.6061 35.3113C65.0202 34.317 65.4339 33.3239 66.0573 32.4088C66.6724 31.5055 67.4994 30.7745 68.3237 30.0457C69.25 29.2268 70.173 28.4109 70.7885 27.3568C71.4705 27.0029 72.1052 26.3509 72.7399 25.699C73.835 24.574 74.9299 23.4493 76.267 23.8574C76.0715 24.3409 75.876 24.8484 75.677 25.3651C75.0322 27.0393 74.3502 28.8102 73.5103 30.1707C73.6026 30.8785 73.3439 31.5357 73.0443 32.2028C72.4396 33.5231 72.0546 34.8704 71.6699 36.2169L71.6698 36.2173C71.4907 36.844 71.3116 37.4705 71.1105 38.094C70.7476 39.2085 70.1899 40.1823 69.6407 41.1411C69.0846 42.1122 68.5373 43.0679 68.2099 44.1389C68.3478 44.5946 68.3839 45.0664 68.42 45.5382C68.5073 46.6802 68.5947 47.8228 70.1262 48.7399C70.1844 48.7224 70.2425 48.7045 70.3006 48.6866C71.0004 48.4709 71.6952 48.2568 72.5034 48.7631C74.8194 47.2598 76.0163 44.545 77.1375 42.0017L77.159 41.9531C76.8272 42.0334 76.5322 42.3397 76.2373 42.646C75.8827 43.0141 75.5283 43.3821 75.1104 43.3571C75.2382 43.1108 75.3731 42.8989 75.4945 42.7083L75.4946 42.7082C75.8597 42.1348 76.1017 41.7547 75.6571 41.2103C75.557 41.4393 75.3513 41.73 75.1179 42.0597L75.1179 42.0598C74.6934 42.6596 74.1775 43.3886 74.0395 44.1107C73.9131 44.0426 73.8113 44.1265 73.7094 44.2104C73.6072 44.2945 73.505 44.3787 73.378 44.31C73.375 43.6686 73.6237 43.2915 73.8794 42.9037C74.1265 42.5291 74.3801 42.1445 74.4198 41.5019C74.6359 41.5446 74.823 41.4107 75.0101 41.2767C75.147 41.1786 75.284 41.0804 75.4324 41.0517C75.7905 40.4221 76.1927 39.7857 76.5948 39.1494C77.6149 37.5354 78.6344 35.9222 78.9322 34.4235C78.1744 35.3798 77.5494 36.4204 76.9335 37.446C75.9167 39.1389 74.9247 40.7905 73.4013 41.9531C73.5633 40.5432 74.6127 39.3885 75.744 38.1438C76.5413 37.2665 77.3793 36.3445 77.9761 35.2568C78.4239 34.1721 79.1434 33.0606 79.8403 31.984L79.8403 31.984C80.5147 30.9422 81.1679 29.9331 81.5333 29.0125C84.1693 26.8143 85.0439 23.2526 81.51 21.3684C81.7004 21.1827 81.6583 21.0329 81.616 20.8823C81.5789 20.7507 81.5418 20.6185 81.6598 20.4611C78.2474 16.4309 74.2533 18.3202 71.0989 19.9527C71.237 19.7367 71.2944 19.5306 71.2029 19.3479L70.9333 19.5117C70.1488 19.9889 69.3678 20.464 68.5727 20.8375C68.5791 20.698 68.5415 20.5646 68.5038 20.4309C68.4444 20.2199 68.3847 20.0082 68.4978 19.7707C67.1856 18.743 65.8675 17.7153 64.7742 18.0975C64.9724 19.7218 64.0904 21.5153 63.2086 23.3082C62.6801 24.3829 62.1517 25.4575 61.856 26.4952C61.19 27.3697 60.8195 28.3608 60.4484 29.3537C60.1365 30.1879 59.8242 31.0235 59.3356 31.7924C59.0599 32.2222 58.6199 32.587 58.1274 32.9952C57.7964 33.2695 57.4418 33.5635 57.0973 33.9101C56.5537 34.454 56.0669 34.9528 55.6078 35.4232L55.6072 35.4239L55.6057 35.4254L55.6055 35.4256C54.4562 36.6033 53.4803 37.6033 52.2221 38.688C51.6165 39.21 50.9587 39.6184 50.2956 40.03C49.4653 40.5455 48.6265 41.0662 47.8711 41.8218C46.9033 42.3061 45.944 42.8472 44.9845 43.3883C42.3148 44.894 39.6431 46.4008 36.781 46.6911C36.7646 45.9393 36.784 45.181 36.8033 44.4232V44.423V44.4229V44.4227V44.4225V44.4223V44.4221C36.8242 43.6033 36.8451 42.7851 36.8209 41.9763C40.5678 40.4236 44.2107 38.2593 47.6639 34.8921C47.5258 35.1089 47.4625 35.3142 47.5607 35.4911C47.9568 34.7387 48.6806 34.1423 49.4656 33.4954C50.1219 32.9546 50.8209 32.3786 51.4069 31.6468C51.1171 32.0225 50.9043 32.3857 50.9731 32.7054C51.4979 32.7975 51.9097 32.1847 52.3213 31.572L52.3214 31.572C52.4965 31.3113 52.6716 31.0507 52.8553 30.8445C52.7229 30.6164 52.5063 30.7794 52.3495 30.8975C52.2196 30.9953 52.1307 31.0622 52.1647 30.8503C53.511 29.8625 54.5644 27.9848 55.1743 26.7578C54.8141 26.6412 54.8986 26.455 54.9834 26.2681C55.0273 26.1713 55.0713 26.0743 55.0537 25.9868C56.3179 24.3152 56.9391 23.0337 57.6162 21.637C57.7623 21.3357 57.9109 21.0291 58.0692 20.712C57.8337 19.411 56.2502 18.3152 54.651 17.2243C52.2536 17.3059 50.0806 18.8063 47.9069 20.3073C46.8712 21.0224 45.8353 21.7377 44.7749 22.2997C45.3643 21.2479 44.6876 20.3997 44.007 19.5466C43.8968 19.4085 43.7865 19.2703 43.6815 19.131C43.1698 19.0114 42.6456 18.8228 42.0639 18.3094C39.2923 17.6195 36.6811 17.9653 34.0717 18.3109C33.6799 18.3628 33.2882 18.4147 32.896 18.4631C31.5038 19.1247 30.1058 19.7492 28.7078 20.3736L28.7077 20.3737L28.7077 20.3737L28.7076 20.3737L28.7075 20.3738L28.7074 20.3738L28.7074 20.3738C23.4592 22.7182 18.2108 25.0627 13.2711 29.3715C13.8095 29.8847 13.8914 30.4681 13.9733 31.0515C14.0709 31.7468 14.1685 32.4422 15.0385 33.0195C15.5502 32.9223 16.0794 32.9389 16.7018 33.5446C17.9451 33.1714 19.1376 32.4699 20.3304 31.7682L20.3304 31.7682C22.0027 30.7844 23.6755 29.8004 25.4895 29.7204C23.5266 34.6005 18.3128 40.657 14.5833 43.8764C13.92 44.452 13.3432 44.856 12.8702 45.1874L12.8701 45.1874C12.6537 45.339 12.459 45.4754 12.2876 45.6061C11.531 46.1852 10.8272 46.8118 10.1556 47.4097C8.29835 49.0631 6.68807 50.4967 4.89198 50.0982C4.90862 48.4599 4.64984 46.8614 4.32782 45.2812C4.83415 44.8418 4.83415 44.482 4.83415 44.1223C4.83415 43.7626 4.83415 43.4028 5.34048 42.9633C5.16466 42.7665 5.03489 42.8734 4.90482 42.9804C4.80098 43.0659 4.69694 43.1516 4.56913 43.083C4.78214 40.6346 5.6109 37.9403 6.58362 35.217C6.78716 34.6546 6.95157 34.07 7.11383 33.4932C7.36483 32.6008 7.61067 31.7268 7.98819 30.9815C8.22057 30.5205 8.46995 30.1092 8.70662 29.7187L8.70664 29.7187C9.3081 28.7265 9.82757 27.8695 9.77801 26.6772C14.6807 19.5539 20.0052 15.09 25.3855 11.0083C26.1249 10.8677 26.817 10.4267 27.508 9.98629L27.508 9.98628C27.7152 9.85423 27.9223 9.72224 28.1306 9.59843C28.3404 9.57621 28.5516 9.56358 28.7627 9.55095C29.5301 9.50503 30.2963 9.45919 30.9913 8.9529C30.2666 7.78895 28.9826 6.50454 27.5207 5.76762C26.4968 5.25397 25.5239 5.37149 24.6752 5.47401C24.412 5.50581 24.1607 5.53616 23.9235 5.5458C20.4157 7.19825 17.0395 10.634 14.0066 13.7204C13.7611 13.9703 13.5178 14.2178 13.2769 14.4619C5.57679 22.2822 1.73836 32.5858 0.00012207 40.4626C0.159292 41.2577 0.138299 41.9448 0.116181 42.6686C0.0992167 43.2238 0.0815907 43.8007 0.144074 44.4646C0.235604 45.435 0.500208 46.2741 0.730697 46.9188C0.958828 47.5622 1.11541 48.3602 1.2693 49.1444C1.46511 50.1422 1.65656 51.1179 1.98549 51.7249C2.80843 53.2378 3.98833 53.8659 5.45031 54.2256C5.42454 54.3095 5.3848 54.3957 5.34503 54.4819C5.20631 54.7827 5.06717 55.0845 5.51854 55.2924C6.55423 55.5277 7.51229 55.2692 8.47095 55.0105C9.37695 54.766 10.2835 54.5214 11.2566 54.6934C11.5302 54.5452 11.8042 54.3998 12.0783 54.2544C14.2954 53.0779 16.5156 51.8998 18.5025 49.2483C19.2453 48.9695 19.9132 48.2155 20.5807 47.462C21.1701 46.7966 21.7592 46.1317 22.3992 45.7947C22.7961 44.6631 23.7678 43.3456 24.6844 42.1027ZM7.99154 26.4634C7.87903 26.4579 7.76685 26.4523 7.67205 26.5401C8.34815 25.7693 9.03307 24.8206 9.74069 23.8404L9.7407 23.8403C10.8515 22.3017 12.0182 20.6855 13.2945 19.5589C12.7077 20.4333 11.9921 21.3598 11.2283 22.3487L11.2282 22.3488C10.2612 23.6008 9.21682 24.953 8.25868 26.4263C8.17562 26.4726 8.08347 26.468 7.99154 26.4634ZM25.8924 40.3945C25.9799 40.2702 26.051 40.1511 26.1218 40.0323L26.1338 40.0123C26.0306 40.1436 25.9499 40.2749 25.8924 40.3945ZM49.3758 23.9205C50.4639 23.2285 51.5414 22.5432 52.4635 22.7674C48.125 28.755 42.8762 33.0079 37.7597 36.0444C40.6312 31.4094 43.4453 28.4069 47.1922 25.0563C47.8948 24.8625 48.6377 24.39 49.3758 23.9205ZM23.1873 42.6318C23.4645 41.9667 23.781 41.5984 24.0921 41.2363C24.3627 40.9214 24.6292 40.6112 24.8623 40.1145C24.0169 40.3712 23.1931 41.8957 23.1873 42.6318ZM22.5375 41.6556C22.7905 41.9074 22.2205 43.4194 21.6397 42.8719C21.8886 42.6748 21.9857 42.5016 22.104 42.2905C22.2016 42.1163 22.3137 41.9163 22.5375 41.6556ZM17.2127 48.3504L17.2128 48.3503C19.1744 46.0962 21.1108 43.8712 22.2205 40.9196C21.5284 41.846 20.7394 42.7991 19.9353 43.7703C18.0043 46.1026 15.9865 48.5399 15.0154 50.9664C15.7224 50.0628 16.4694 49.2045 17.2127 48.3504ZM7.35466 28.6427C7.13982 28.9325 6.92523 29.2219 6.86577 29.4861C6.6759 28.9939 7.13146 28.3955 7.58351 27.8017C7.66634 27.6929 7.74906 27.5842 7.82767 27.4764C7.9659 27.8183 7.66002 28.2308 7.35466 28.6427Z" fill="#FFF"/>
            <path d="M62.4436 40.3836C62.949 40.5864 62.2027 41.1454 62.0461 41.1636C61.9087 41.0024 62.0827 40.2882 62.4436 40.3836Z" fill="#FFF"/>
            <path d="M56.0166 24.8189C56.2749 24.5326 56.5712 24.5267 56.9232 24.9391C56.0024 25.4558 56.4631 26.9467 55.4193 27.6922C55.1706 26.8207 56.3551 25.6737 56.0166 24.8189Z" fill="#FFF"/>
            <path d="M50.9761 41.1158C51.097 41.349 50.9822 41.628 50.7474 41.9132C50.723 41.9314 50.6934 41.9435 50.6691 41.9617C50.2246 41.765 50.8674 41.3958 50.9761 41.1158Z" fill="#FFF"/>
            <path d="M50.8087 42.2774C50.7965 42.2947 50.7782 42.319 50.7608 42.3372C50.7487 42.3312 50.7426 42.3312 50.7304 42.3251C50.7547 42.3078 50.7843 42.2947 50.8087 42.2774Z" fill="#FFF"/>
            <path d="M26.0274 40.9686C26.0874 40.8438 26.1718 40.7068 26.2805 40.5699C26.2022 40.7008 26.1239 40.8316 26.0274 40.9686Z" fill="#FFF"/>
            <path fill-rule="evenodd" clip-rule="evenodd" d="M231.539 62.2967C226.142 61.802 221.332 61.5539 216.5 61.817C214.448 61.9285 212.38 61.9223 210.318 61.916L210.279 61.9159C204.79 61.8986 199.3 61.8641 193.811 61.8122C192.218 61.7969 190.626 61.7509 189.034 61.7049C186.472 61.6308 183.908 61.5567 181.335 61.6105C177.032 61.7013 172.722 61.6511 168.411 61.6008C166.315 61.5764 164.219 61.5519 162.123 61.5437C159.378 61.5327 156.632 61.5319 153.89 61.5971C151.274 61.66 148.66 61.755 146.046 61.85C144.843 61.8936 143.64 61.9373 142.437 61.9779C138.37 62.1161 134.301 62.2535 130.233 62.3886C129.156 62.4243 128.079 62.4667 127.002 62.509C124.508 62.607 122.014 62.705 119.518 62.7215C116.248 62.7433 112.976 62.7198 109.705 62.6964C107.327 62.6793 104.949 62.6623 102.572 62.6626C99.2392 62.663 95.9071 62.6809 92.575 62.6988L92.5749 62.6988C89.67 62.7144 86.765 62.73 83.8596 62.734C77.2892 62.7435 70.7179 62.7293 64.1466 62.7066C63.4152 62.7039 62.6829 62.6723 61.9506 62.6407C61.185 62.6077 60.4194 62.5746 59.6547 62.5746C58.3869 62.5749 57.1212 62.6259 55.8554 62.6768C53.8032 62.7594 51.7503 62.842 49.6866 62.7089C49.1679 62.6755 48.6451 62.6921 48.1225 62.7087C47.8952 62.7159 47.668 62.7231 47.4411 62.7262C46.3156 62.7412 45.1902 62.7573 44.0648 62.7733C41.3672 62.8118 38.6699 62.8502 35.9718 62.8746C35.4819 62.8788 34.9907 62.8521 34.4995 62.8253C33.9933 62.7977 33.4869 62.7701 32.9819 62.7764C30.453 62.8067 27.9241 62.8493 25.3952 62.892C23.8532 62.918 22.3112 62.944 20.7692 62.9672C19.9908 62.9791 19.2122 62.9831 18.4335 62.9871H18.4335C17.718 62.9907 17.0025 62.9944 16.2873 63.0041L16.1935 63.0053C15.56 63.0134 14.9214 63.0216 14.2965 63.0889C10.8563 63.4556 7.39773 63.6605 3.84644 63.6354C3.87259 63.8603 3.8962 64.082 3.91957 64.3014C3.97305 64.8037 4.02524 65.2938 4.10374 65.7813C4.21819 66.4966 4.37441 67.2111 5.18976 67.9075C5.47461 67.9602 5.77542 68.0312 6.08709 68.1048L6.08709 68.1048C6.82112 68.278 7.61542 68.4655 8.40356 68.4611C9.79052 68.4533 11.1746 68.3045 12.5568 68.1559L12.5568 68.1559C12.982 68.1102 13.4071 68.0645 13.832 68.023C14.6586 67.9423 15.4832 67.8495 16.3078 67.7567L16.3079 67.7567C17.1208 67.6652 17.9339 67.5737 18.7492 67.4938C19.0017 67.4688 19.2614 67.4727 19.5205 67.4766C19.8494 67.4816 20.1773 67.4865 20.4885 67.4325C23.2819 66.9476 26.1263 66.8353 28.9705 66.723C30.437 66.6651 31.9035 66.6071 33.3629 66.4982C33.7081 66.4722 34.059 66.4866 34.41 66.501H34.41C34.5584 66.5071 34.7069 66.5132 34.8549 66.5162C35.2815 66.5246 35.7084 66.5389 36.1354 66.5533C37.0353 66.5835 37.9351 66.6138 38.8314 66.5877C39.8822 66.5573 40.9326 66.5161 41.983 66.4749C45.7438 66.3272 49.5041 66.1796 53.2772 66.5319C53.6822 66.5698 54.0863 66.6144 54.4903 66.6589C55.979 66.823 57.465 66.9869 58.9763 66.8146C59.2408 66.7846 59.5244 66.8283 59.8011 66.871L59.8011 66.871C59.8574 66.8797 59.9133 66.8883 59.9688 66.8962C63.4365 67.3909 66.9202 67.4694 70.4188 67.3344C71.6619 67.2865 72.9259 67.2409 74.1598 67.3563C76.2854 67.5556 78.3772 67.3983 80.467 67.2413C80.7655 67.2188 81.064 67.1964 81.3626 67.175C83.8521 67.0274 86.8351 66.7727 89.9974 66.5027C91.2262 66.3978 92.4821 66.2906 93.7466 66.1864L93.7854 66.1835C94.4286 66.134 95.1197 66.0808 95.7248 66.2155C96.9086 66.4773 98.0907 66.4728 99.2789 66.4682C99.58 66.4671 99.8814 66.4659 100.183 66.4691C102.009 66.4887 103.84 66.539 105.659 66.6756C106.622 66.748 107.581 66.8623 108.54 66.9766C109.558 67.0979 110.576 67.2192 111.598 67.2904C117.91 67.7285 124.227 68.0512 130.55 67.7552C131.68 67.7025 132.808 67.6275 133.937 67.5526C134.875 67.4902 135.813 67.4279 136.753 67.3783C137.473 67.3403 138.193 67.2899 138.913 67.2395C140.763 67.1102 142.615 66.9808 144.456 67.0588C147.523 67.1885 150.553 67.0024 153.582 66.8164C155.099 66.7233 156.616 66.6301 158.138 66.5767C159.938 66.5137 161.734 66.4089 163.531 66.3042L163.531 66.3042C164.712 66.2353 165.893 66.1665 167.075 66.1095C168.623 66.0345 170.172 65.9713 171.721 65.9081C172.993 65.8562 174.264 65.8044 175.534 65.746C177.025 65.6777 178.514 65.5858 180.002 65.4924C181.04 65.4266 182.077 65.3574 183.115 65.2883C184.307 65.2088 185.5 65.1293 186.693 65.055C188.096 64.9679 189.501 64.8893 190.907 64.8297C191.843 64.7898 192.779 64.7593 193.716 64.7288C195.598 64.6676 197.48 64.6064 199.352 64.4685C200.93 64.3523 202.484 64.28 204.072 64.3593L204.327 64.3722C205.737 64.4435 207.171 64.5161 208.55 64.3688C211.191 64.0869 213.837 64.006 216.496 63.9825L216.795 63.9801C217.527 63.9747 218.259 63.9692 218.986 63.9236C220.264 63.8432 221.44 63.6448 222.621 63.4455C223.654 63.2712 224.692 63.0961 225.806 62.9986C226.366 62.9497 226.872 62.93 227.37 62.9106C228.151 62.8801 228.91 62.8505 229.819 62.7105C229.865 62.7035 229.922 62.6966 229.991 62.6885C230.337 62.6473 230.95 62.5743 231.539 62.2967ZM142.439 65.2615L141.61 65.6706L140.228 65.7491C140.228 65.7491 138.181 65.461 140.006 65.1728H141.223L142.439 65.2615ZM150.025 65.9588L151.568 65.5497L149.304 65.461H147.04C143.643 65.7491 147.451 66.0373 147.451 66.0373L150.025 65.9588Z" fill="#FFF"/>
            <path d="M94.5381 67.3736H96.8843L99.2306 67.4724L97.6307 67.9239L94.964 68.0106C94.964 68.0106 91.0178 67.6925 94.5381 67.3736Z" fill="#FFF"/>
            <path d="M40.9456 66.8527L46.2355 66.0675L51.5384 65.3848L47.9945 66.392L41.9957 67.3746C41.9957 67.3746 33.0563 68.3636 40.9456 66.8527Z" fill="#FFF"/>
            <path d="M107.896 66.709L113.177 66.5686L118.461 66.527L114.872 67.0739L108.873 67.32C108.873 67.32 99.982 67.2368 107.896 66.709Z" fill="#FFF"/>
            <path d="M62.6742 67.4769L58.2665 67.6905L53.8461 67.6928L56.7965 66.5823L61.7959 66.1543C61.7959 66.1543 69.2484 66.4766 62.6742 67.4769Z" fill="#FFF"/>
            <path d="M30.6803 67.1695H39.1863L47.6924 67.3315L41.8933 68.0717L32.2268 68.2147C32.2268 68.2147 17.9216 67.6921 30.6803 67.1695Z" fill="#FFF"/>
            <path d="M89.1916 66.6054H90.3646L91.5383 66.7042L90.7384 67.1549L89.4051 67.2416C89.4051 67.2416 87.4322 66.9235 89.1916 66.6054Z" fill="#FFF"/>
            <path d="M45.3458 66.6054H46.519L47.6922 66.7042L46.8921 67.1549L45.5586 67.2416C45.5586 67.2416 43.5861 66.9235 45.3458 66.6054Z" fill="#FFF"/>
            <path d="M19.9612 68.1435H21.1344L22.3076 68.2423L21.5075 68.693L20.1739 68.7797C20.1739 68.7797 18.2014 68.4616 19.9612 68.1435Z" fill="#FFF"/>
        </svg>